<svg width="66" height="66" viewBox="0 0 66 66" fill="none" xmlns="http://www.w3.org/2000/svg">
<circle cx="33" cy="33" r="33" fill="white"/>
<circle cx="33" cy="33" r="31" fill="black"/>
<circle cx="33" cy="33" r="30" fill="white"/>
<path d="M31.118 53H50.4307C50.4724 53 50.5097 52.9741 50.5243 52.9351L51.9493 49.1351C51.9738 49.0697 51.9255 49 51.8557 49H35.5864C35.2787 49 35.044 48.7248 35.0926 48.421L35.16 48L40.9486 13.3079C40.9646 13.2119 40.8481 13.1519 40.7793 13.2207L37.0227 16.9773C37.0079 16.9921 36.9982 17.0111 36.9947 17.0316L31.0194 52.8836C31.0092 52.9445 31.0562 53 31.118 53Z" fill="#800000" stroke="#800000" stroke-width="0.5"/>
<path d="M36.2612 48H51.8676C51.9324 48 51.9778 47.9361 51.9565 47.875L50.9788 45.0632C50.9656 45.0254 50.9299 45 50.8899 45H40.6492C40.0355 45 39.5666 44.4524 39.6611 43.846L43.9944 16.0362C43.998 16.0129 43.9927 15.9891 43.9797 15.9695L42.1319 13.1979C42.0846 13.1269 41.9749 13.1505 41.9608 13.2346L36.1683 47.8904C36.1587 47.9477 36.203 48 36.2612 48Z" fill="#800000" stroke="#800000" stroke-width="0.5"/>
<path d="M34.882 13H15.5693C15.5276 13 15.4903 13.0259 15.4757 13.0649L14.0507 16.8649C14.0262 16.9303 14.0745 17 14.1443 17H30.4136C30.7213 17 30.956 17.2752 30.9074 17.579L30.84 18L25.0514 52.6921C25.0354 52.7881 25.1519 52.8481 25.2207 52.7793L28.9773 49.0227C28.9921 49.0079 29.0018 48.9889 29.0053 48.9684L34.9806 13.1164C34.9908 13.0555 34.9438 13 34.882 13Z" fill="black" stroke="black" stroke-width="0.5"/>
<path d="M29.7388 18H14.1324C14.0676 18 14.0222 18.0639 14.0435 18.125L15.0212 20.9368C15.0344 20.9746 15.0701 21 15.1101 21H25.3508C25.9645 21 26.4334 21.5476 26.3389 22.154L22.0056 49.9638C22.002 49.9871 22.0073 50.0109 22.0203 50.0305L23.8681 52.8021C23.9154 52.8731 24.0251 52.8495 24.0392 52.7654L29.8317 18.1096C29.8413 18.0523 29.797 18 29.7388 18Z" fill="black" stroke="black" stroke-width="0.5"/>
</svg>
